<?xml version="1.0" standalone="no"?><svg xmlns="http://www.w3.org/2000/svg" viewBox="0 0 1440 320"><path fill="#0c2e60" fill-opacity="1" d="M0,0L30,32C60,64,120,128,180,165.3C240,203,300,213,360,202.7C420,192,480,160,540,133.3C600,107,660,85,720,64C780,43,840,21,900,37.3C960,53,1020,107,1080,122.7C1140,139,1200,117,1260,101.3C1320,85,1380,75,1410,69.3L1440,64L1440,320L1410,320C1380,320,1320,320,1260,320C1200,320,1140,320,1080,320C1020,320,960,320,900,320C840,320,780,320,720,320C660,320,600,320,540,320C480,320,420,320,360,320C300,320,240,320,180,320C120,320,60,320,30,320L0,320Z"></path></svg>