<?xml version="1.0" encoding="iso-8859-1"?>
<!-- Generator: Adobe Illustrator 19.0.0, SVG Export Plug-In . SVG Version: 6.00 Build 0)  -->
<svg version="1.1" id="Capa_1" xmlns="http://www.w3.org/2000/svg" xmlns:xlink="http://www.w3.org/1999/xlink" x="0px" y="0px"
	 viewBox="0 0 512.001 512.001" style="enable-background:new 0 0 512.001 512.001;" xml:space="preserve">
<path style="fill:#666666;" d="M512,322.24V30.241c0-12.681-10.28-22.962-22.962-22.962H22.962C10.28,7.279,0,17.559,0,30.241
	v291.998L512,322.24L512,322.24z"/>
<path style="fill:#EAE4D6;" d="M483.797,91.889V43.311c0-4.316-3.512-7.828-7.828-7.828H36.032c-4.316,0-7.828,3.512-7.828,7.828
	V91.89l0,0v191.566c0,4.129,3.512,7.489,7.828,7.489h439.937c4.316,0,7.828-3.36,7.828-7.489L483.797,91.889L483.797,91.889z"/>
<path style="fill:#DDD3C0;" d="M61.192,283.456V91.889l0,0V43.311c0-4.316,3.512-7.828,7.828-7.828H36.031
	c-4.316,0-7.828,3.512-7.828,7.828V91.89l0,0v191.566c0,4.129,3.512,7.489,7.828,7.489H69.02
	C64.704,290.945,61.192,287.585,61.192,283.456z"/>
<path style="fill:#535454;" d="M51.165,7.279H22.961C10.28,7.279,0,17.559,0,30.241v291.998h28.203V30.241
	C28.203,17.559,38.484,7.279,51.165,7.279z"/>
<polygon style="fill:#CCCCCC;" points="314.724,477.548 197.276,477.548 202.198,401.826 309.802,401.826 "/>
<polygon style="fill:#BCBBBB;" points="202.198,401.826 197.276,477.548 228.183,477.548 233.105,401.826 "/>
<path style="fill:#EFEFEF;" d="M330.021,504.721H181.979c-7.788,0-14.102-6.314-14.102-14.102l0,0
	c0-7.788,6.314-14.102,14.102-14.102H330.02c7.788,0,14.102,6.314,14.102,14.102l0,0
	C344.122,498.408,337.809,504.721,330.021,504.721z"/>
<path style="fill:#DDDDDD;" d="M215.191,490.619c0-7.788,6.314-14.102,14.102-14.102H181.98c-7.788,0-14.102,6.314-14.102,14.102
	s6.314,14.102,14.102,14.102h47.313C221.504,504.721,215.191,498.408,215.191,490.619z"/>
<path style="fill:#EFEFEF;" d="M0,319.148v60.745c0,12.681,10.28,22.962,22.962,22.962h466.077c12.681,0,22.962-10.28,22.962-22.962
	v-60.745H0z"/>
<path style="fill:#DDDDDD;" d="M28.203,379.893v-60.746H0v60.746c0,12.681,10.28,22.962,22.962,22.962h28.203
	C38.484,402.855,28.203,392.576,28.203,379.893z"/>
<circle style="fill:#CCCCCC;" cx="253.17" cy="360.74" r="14.759"/>
<path style="fill:#BCBBBB;" d="M253.172,360.744c-2.73-4.728-2.534-10.333,0.007-14.747c-2.511-0.004-5.055,0.62-7.386,1.966
	c-7.059,4.076-9.478,13.102-5.402,20.161c4.076,7.059,13.102,9.478,20.161,5.402c2.331-1.346,4.143-3.237,5.396-5.414
	C260.854,368.105,255.902,365.472,253.172,360.744z"/>
<g>
	<path style="fill:#C9B89F;" d="M429.152,114.205H281.17c-4.267,0-7.727-3.459-7.727-7.727c0-4.268,3.459-7.727,7.727-7.727h147.981
		c4.267,0,7.727,3.459,7.727,7.727C436.878,110.746,433.419,114.205,429.152,114.205z"/>
	<path style="fill:#C9B89F;" d="M429.152,143.297H281.17c-4.267,0-7.727-3.459-7.727-7.727s3.459-7.727,7.727-7.727h147.981
		c4.267,0,7.727,3.459,7.727,7.727C436.878,139.838,433.419,143.297,429.152,143.297z"/>
	<path style="fill:#C9B89F;" d="M429.152,172.387H246.999c-4.267,0-7.727-3.459-7.727-7.727s3.459-7.727,7.727-7.727h182.152
		c4.267,0,7.727,3.459,7.727,7.727S433.419,172.387,429.152,172.387z"/>
	<path style="fill:#C9B89F;" d="M429.152,201.99H246.999c-4.267,0-7.727-3.459-7.727-7.727s3.459-7.727,7.727-7.727h182.152
		c4.267,0,7.727,3.459,7.727,7.727S433.419,201.99,429.152,201.99z"/>
	<path style="fill:#C9B89F;" d="M429.152,230.976H246.999c-4.267,0-7.727-3.459-7.727-7.727s3.459-7.727,7.727-7.727h182.152
		c4.267,0,7.727,3.459,7.727,7.727S433.419,230.976,429.152,230.976z"/>
	<path style="fill:#C9B89F;" d="M173.608,263.955H95.294c-4.267,0-7.727-3.459-7.727-7.727c0-4.268,3.459-7.727,7.727-7.727h78.314
		c4.267,0,7.727,3.459,7.727,7.727S177.875,263.955,173.608,263.955z"/>
</g>
<path style="fill:#FFFFFF;" d="M189.105,100.764c-25.337,0-80.078,0-109.307,0c-3.58,0-6.509,2.929-6.509,6.51v38.647
	c-0.013,84.091-0.365,77.752,0.971,79.93c2.975,4.807,5.993,3.113,94.831,3.113c31.216,0,26.377,4.06,26.522-29.017V145.92v-38.647
	C195.614,103.694,192.686,100.764,189.105,100.764z"/>
<path style="fill:#EFEFEF;" d="M104.203,222.463c0-12.392,0-103.451,0-115.189c0-3.58,2.929-6.509,6.509-6.509
	c-9.193,0-21.023,0-30.913,0c-3.58,0-6.509,2.929-6.509,6.509v38.647c0.024,82.213-0.921,78.825,2.376,81.553
	c2.612,2.158,1.616,1.491,35.046,1.491C108.687,228.964,104.207,226,104.203,222.463z"/>
<path style="fill:#F94A46;" d="M153.399,189.638h-37.895c-6.609,0-11.966,5.358-11.966,11.967v27.589h61.827v-27.589
	C165.365,194.995,160.008,189.638,153.399,189.638z"/>
<path style="fill:#EF3C3C;" d="M146.418,189.638h-30.914c-6.609,0-11.966,5.358-11.966,11.967v27.59h30.914v-27.59
	C134.452,194.995,139.809,189.638,146.418,189.638z"/>
<circle style="fill:#F7CF9C;" cx="134.45" cy="151.34" r="20.01"/>
<path style="fill:#EAB883;" d="M134.451,151.34c-3.702-6.412-3.436-14.012,0.009-19.999c-3.405-0.005-6.855,0.841-10.016,2.666
	c-9.573,5.527-12.852,17.767-7.325,27.34s17.767,12.853,27.34,7.326c3.161-1.825,5.618-4.39,7.316-7.341
	C144.868,161.322,138.153,157.752,134.451,151.34z"/>
<circle style="fill:#92B620;" cx="207" cy="108.91" r="38.713"/>
<path style="fill:#83A00B;" d="M202.637,70.444c-27.573,3.114-43.135,33.622-29.162,57.825
	c13.985,24.222,48.192,25.957,64.659,3.658C204.564,135.718,182.573,97.615,202.637,70.444z"/>
<path style="fill:#EFEFEF;" d="M203.238,125.728c-5.699-0.11-7-5.204-13.241-12.037c-2.676-3.324-2.151-8.189,1.174-10.865
	c3.326-2.675,8.189-2.149,10.864,1.174l1.583,1.966l9.762-11.217c2.802-3.219,7.683-3.557,10.901-0.756
	c3.22,2.801,3.558,7.682,0.757,10.901l-15.822,18.18C207.686,124.831,205.475,125.774,203.238,125.728z"/>
<g>
</g>
<g>
</g>
<g>
</g>
<g>
</g>
<g>
</g>
<g>
</g>
<g>
</g>
<g>
</g>
<g>
</g>
<g>
</g>
<g>
</g>
<g>
</g>
<g>
</g>
<g>
</g>
<g>
</g>
</svg>
